<?xml version="1.0" encoding="utf-8"?>
<!-- Generator: Adobe Illustrator 22.1.0, SVG Export Plug-In . SVG Version: 6.00 Build 0)  -->
<svg version="1.1" id="Layer_1" xmlns="http://www.w3.org/2000/svg" xmlns:xlink="http://www.w3.org/1999/xlink" x="0px" y="0px"
	 viewBox="0 0 60 60" style="enable-background:new 0 0 60 60;" xml:space="preserve">
<style type="text/css">
	.st0{fill:#FFFFFF;}
</style>
<path class="st0" d="M46.2,43.8c0.2-0.8,0.3-1.6,0.5-2.3c0.5-2.1,0.8-3.8,0.8-5.1c0-6.6-1.8-18.5-3.7-23.7c0-0.1,0-0.1,0-0.2
	l-1.1-9.2c-0.3-1.8-1.8-3.1-3.6-3.1h-9.3h0h-9.3c-1.7,0-3.3,1.3-3.6,3.1l-1.1,9.2c0,0.1,0,0.1,0,0.2c-1.8,5.2-3.7,17.1-3.7,23.7
	c0,1.2,0.4,2.9,0.8,5.1c0.2,0.7,0.3,1.5,0.5,2.3c0,0.2,0,0.4-0.1,0.6c-0.8,1.3-1.2,2.9-1.2,4.6v4.6c0,0.7,0.2,1.3,0.6,1.9
	c0.3,0.5,3.7,4.8,17.1,4.8h0h0c13.5,0,16.8-4.3,17.1-4.8c0.4-0.6,0.6-1.2,0.6-1.9v-4.6c0-1.7-0.4-3.2-1.2-4.6
	C46.2,44.2,46.2,44,46.2,43.8z M16.7,54.1c0,0.7-0.8,1.1-1.3,0.7c-0.5-0.4-0.7-0.7-0.7-0.7c-0.1-0.2-0.2-0.4-0.2-0.6v-4.6
	c0-1.1,0.3-2.2,0.8-3.1c0.4-0.8,1.6-0.5,1.6,0.4C16.8,49.4,16.7,52.1,16.7,54.1z M16.9,40.6c0,0.3-0.2,0.6-0.5,0.7
	c-0.3,0.2-0.7,0.4-1,0.6c-0.1-0.3-0.1-0.7-0.2-1c-0.4-1.9-0.8-3.6-0.8-4.6c0-4.4,0.9-11.6,2-17.1c0.1-0.3,0.6-0.3,0.6,0.1
	C17,26.3,16.9,34,16.9,40.6z M29.8,57.9c-4.6,0-7.9-0.6-10.3-1.2c-0.3-0.1-0.5-0.4-0.5-0.8h0c0-0.1,0-0.2,0-0.3
	c0-6,4.9-10.9,10.8-10.9c6,0,10.8,4.9,10.8,10.9c0,0.1,0,0.2,0,0.3h0c0,0.4-0.2,0.7-0.5,0.8C37.8,57.4,34.5,57.9,29.8,57.9z
	 M19.1,45.7c0.1-8.3,0.2-19.6,0.2-28.9c0-0.5,0.4-0.8,0.8-0.8h1.5c0.7,0,1,0.4,1,0.9v27.3c0,0.3-0.1,0.5-0.4,0.7
	c-0.6,0.5-1.3,1-1.8,1.5C20,46.8,19.1,46.4,19.1,45.7z M29.5,18.4h0.3h0h0.3c0.5,0,0.9-0.4,0.9-0.9v-0.8c0-0.5,0.4-0.9,0.9-0.9h1.9
	c0.5,0,0.9,0.4,0.9,0.9V19c0,0.2-0.1,0.4-0.2,0.6l-3.9,4.1c-0.3,0.4-0.9,0.4-1.2,0l-3.9-4.1c-0.1-0.2-0.2-0.4-0.2-0.6v-2.2
	c0-0.5,0.4-0.9,0.9-0.9h1.9c0.5,0,0.9,0.4,0.9,0.9v0.8C28.6,18,29,18.4,29.5,18.4z M34.5,24.9v2.4c0,0.8-0.9,1.1-1.5,0.6l-1.1-1.2
	c-0.3-0.3-0.3-0.8,0-1.2l1.1-1.2C33.6,23.7,34.5,24.1,34.5,24.9z M26.6,24.3l1.1,1.2c0.3,0.3,0.3,0.8,0,1.2l-1.1,1.2
	c-0.5,0.6-1.5,0.2-1.5-0.6v-2.4C25.1,24.1,26,23.7,26.6,24.3z M25.3,32.6l3.9-4.1c0.3-0.4,0.9-0.4,1.2,0l3.9,4.1
	c0.1,0.2,0.2,0.4,0.2,0.6v9c0,0.6-0.5,1-1.1,0.8c-1.2-0.3-2.4-0.5-3.6-0.5h0h0c-1.3,0-2.5,0.2-3.6,0.5c-0.5,0.2-1.1-0.2-1.1-0.8v-9
	C25.1,32.9,25.2,32.7,25.3,32.6z M36.9,16.7c0-0.5,0.4-0.8,0.9-0.8h1.7c0.5,0,0.9,0.4,0.9,0.8c0,9.3,0.1,20.6,0.2,28.9
	c0,0.8-0.9,1.1-1.5,0.6c-0.6-0.5-1.1-1-1.8-1.5c-0.2-0.2-0.4-0.4-0.4-0.7C36.9,40.8,36.9,21.1,36.9,16.7z M41.4,13.4
	c0,0.1-0.1,0.1-0.3,0.1h-9.3c-0.5,0-0.9-0.4-0.9-0.9v-0.4c0-0.5-0.4-0.9-0.9-0.9h-0.3h0h-0.3c-0.5,0-0.9,0.4-0.9,0.9v0.4
	c0,0.5-0.4,0.9-0.9,0.9h-9.3c-0.2,0-0.3-0.1-0.3-0.1s-0.1-0.2-0.1-0.3l1.2-9.4c0.1-0.6,0.7-1.1,1.3-1.1h9.3h0h9.3
	c0.6,0,1.2,0.5,1.3,1.1l1.2,9.4C41.6,13.3,41.5,13.4,41.4,13.4z M45.2,53.5c0,0.2-0.1,0.4-0.2,0.6c0,0-0.2,0.3-0.7,0.7
	c-0.6,0.4-1.3,0-1.3-0.7c0-2-0.1-4.7-0.1-7.9c0-0.9,1.2-1.2,1.6-0.4c0.5,0.9,0.8,2,0.8,3.1V53.5z M44.4,41c-0.1,0.3-0.1,0.7-0.2,1
	c-0.3-0.2-0.6-0.4-1-0.6c-0.3-0.1-0.5-0.4-0.5-0.7c-0.1-6.6-0.1-14.3-0.2-21.3c0-0.4,0.5-0.4,0.6-0.1c1.1,5.5,2,12.7,2,17.1
	C45.2,37.4,44.8,39.1,44.4,41z"/>
</svg>
