<?xml version="1.0" encoding="utf-8"?>
<!-- Generator: Adobe Illustrator 22.1.0, SVG Export Plug-In . SVG Version: 6.00 Build 0)  -->
<svg version="1.1" id="Layer_1" xmlns="http://www.w3.org/2000/svg" xmlns:xlink="http://www.w3.org/1999/xlink" x="0px" y="0px"
	 viewBox="0 0 60 60" style="enable-background:new 0 0 60 60;" xml:space="preserve">
<style type="text/css">
	.st0{fill:#FFFFFF;}
</style>
<path class="st0" d="M60,32.7C54.4,8.1,34.5,9.9,32.3,10.1c0,0-0.1,0-0.1,0c-2.1,0-19.7,0.8-32.1,28.1c-0.2,0.4-0.2,0.9,0.1,1.3
	c0.2,0.4,0.6,0.7,1.1,0.7c0.2,0,15.3,1.6,20,8.6c0,0,0,0,0.1,0.1c0,0,0.1,0.1,0.1,0.1c0.1,0.1,0.1,0.1,0.2,0.2c0,0,0,0,0.1,0.1
	c0,0,0,0,0,0c0.1,0,0.2,0.1,0.2,0.1c0,0,0.1,0,0.1,0c0.1,0,0.2,0.1,0.4,0.1c0.1,0,0.1,0,0.2,0c0,0,0,0,0,0c0.1,0,0.2-0.1,0.3-0.1
	c0,0,0,0,0.1,0c0.1-0.1,0.2-0.1,0.3-0.2c11-9.5,35.3-14.8,35.5-14.8c0.4-0.1,0.7-0.3,0.9-0.6S60,33,60,32.7z M33.3,13.5
	c0.1-0.4,0.4-0.7,0.9-0.7c4.1-0.2,15.1,0.6,20.8,13.7c-4.1-2.1-8.3-2.8-12.5-1.9c-6.4,1.4-11.5,6-14.9,9.9l3-10.9L33.3,13.5z
	 M29,13.4c0.7-0.2,1.3,0.5,1.1,1.1l-2.4,8.7c-1-2-2.5-3.4-4.3-4.1c-1.7-0.7-3.6-0.7-5.4-0.4C22.4,15.4,26.4,14,29,13.4z M5.5,38
	c-0.3,0-0.5-0.1-0.7-0.1c-0.6-0.1-0.9-0.8-0.7-1.3c2.6-5.1,5.3-9.1,8.1-12.3c1.6-1.1,5.1-3,8.2-3l-14,16.4C6.1,38,5.8,38.1,5.5,38z
	 M17.1,40.5c-0.1,0.6-0.7,1-1.3,0.7c-1.8-0.8-3.6-1.5-5.4-2c-0.6-0.2-0.9-1-0.4-1.5c1.5-1.8,4.7-5.5,6.8-7.9
	c0.6-0.7,1.7-0.2,1.6,0.7L17.1,40.5z M22.2,43.7c-0.2,0.6-0.9,0.9-1.5,0.5c-0.2-0.2-0.4-0.3-0.7-0.5c-0.3-0.2-0.4-0.5-0.4-0.9
	l2.7-21.1c0,0,0,0,0,0c2,0.8,3.4,2.9,4.1,6.3L22.2,43.7z M56,32.1c-5.4,1.3-19.1,5-29.1,11.1c-0.7,0.4-1.5-0.2-1.4-0.9
	c0-0.1,0.1-0.1,0.1-0.2c0.8-1.4,7.8-12.6,17.5-14.6c4.4-1,8.9,0.1,13.3,3.3c0.1,0.1,0.2,0.2,0.2,0.3l0,0C56.8,31.5,56.5,32,56,32.1z
	"/>
</svg>
