<?xml version="1.0" encoding="utf-8"?>
<!-- Generator: Adobe Illustrator 22.1.0, SVG Export Plug-In . SVG Version: 6.00 Build 0)  -->
<svg version="1.1" id="Layer_1" xmlns="http://www.w3.org/2000/svg" xmlns:xlink="http://www.w3.org/1999/xlink" x="0px" y="0px"
	 viewBox="0 0 50 50" style="enable-background:new 0 0 50 50;" xml:space="preserve">
<style type="text/css">
	.st0{fill:#FFFFFF;}
</style>
<path class="st0" d="M25,0c-4.7,0-7.6,0.8-8.1,1c0,0,0,0,0,0c0,0-0.1,0-0.1,0c-0.1,0-0.1,0-0.2,0.1c0,0-0.1,0-0.1,0
	c-0.3,0.1-0.5,0.3-0.6,0.6c0,0,0,0,0,0l-3.7,4.6c0,0.1-0.1,0.1-0.1,0.2L9.3,7.9v0c-2.3,1-3.9,3-4.7,5.3L0.1,26.7C0,26.8,0,26.9,0,27
	v15c0,0.6,0.4,1,1,1h8v6c0,0.6,0.4,1,1,1h30c0.6,0,1-0.4,1-1v-6h8c0.6,0,1-0.4,1-1V27c0-0.1,0-0.2-0.1-0.3l-4.5-13.5
	c-0.8-2.4-2.5-4.3-4.7-5.3v0l-2.8-1.3c0-0.1-0.1-0.1-0.1-0.2l-3.7-4.6c-0.1-0.4-0.4-0.7-0.8-0.8c0,0,0,0-0.1,0c0,0-0.1,0-0.1,0
	c0,0,0,0-0.1,0c0,0,0,0,0,0C32.6,0.8,29.7,0,25,0z M25,2c3,0,5.1,0.3,6.4,0.6L25,12.2l-6.4-9.6C19.9,2.3,22,2,25,2z M16.9,3.7
	l4.8,7.2l-7.2-4.2L16.9,3.7z M33.1,3.7l2.4,3l-7.2,4.2L33.1,3.7z M13.2,8.2L24,14.6V27H11v-4H9v2H3.6L3,27h6v10H3v2h6v2H2V27.1
	l4.4-13.3c0.6-1.8,1.9-3.3,3.7-4.1L13.2,8.2z M36.8,8.2l3,1.5c1.7,0.8,3.1,2.2,3.7,4.1L47.3,25H42v2h6l0,0.1V37h-6v2h6v2h-7V23h-2v4
	H27v2h12v12.8c0,0.1,0,0.1,0,0.2H27v2h12v4H26V14.6L36.8,8.2z M11,29h13v13H11c0-0.1,0-0.1,0-0.2V29z M11,44h13v4H11V44z"/>
</svg>
